<svg xmlns="http://www.w3.org/2000/svg" width="479.06pt" height="161.09pt" viewBox="0 0 479.06 161.09"><defs><clipPath id="a"><path d="M0 0h86v161.09H0Zm0 0"/></clipPath><clipPath id="b"><path d="M148 23h84v138.09h-84Zm0 0"/></clipPath><clipPath id="c"><path d="M286 22h33v139.09h-33Zm0 0"/></clipPath><clipPath id="d"><path d="M396 0h83.059v161.09H396Zm0 0"/></clipPath></defs><g clip-path="url(#a)"><path d="M31.809 85.348H74.64V71.836H31.809v-58.32h50.593V0H0v161.09h85.957v-13.512H31.809" style="stroke:none;fill-rule:nonzero;fill:#074538;fill-opacity:1"/></g><g clip-path="url(#b)"><path d="M180.824 23.188h-31.969V161.09h82.407v-13.516h-50.438" style="stroke:none;fill-rule:nonzero;fill:#074538;fill-opacity:1"/></g><g clip-path="url(#c)"><path d="M286.602 161.09h31.812V22.89h-31.812Zm0 0" style="stroke:none;fill-rule:nonzero;fill:#074538;fill-opacity:1"/></g><g clip-path="url(#d)"><path d="M479.055 13.512V-.004h-82.403V161.09h31.813V88.559h42.832V75.043h-42.832V13.512" style="stroke:none;fill-rule:nonzero;fill:#074538;fill-opacity:1"/></g></svg>